# xmcd
#
# Track frame offsets: 
#        150
#        17407
#        32855
#        49892
#        71550
#        91432
#        109657
#        125727
#        147110
#        162077
#
# Disc length: 2395 seconds
#
# Revision: 10
# Processed by: cddbd v1.4PL0 Copyright (c) Steve Scherf et al.
# Submitted via: ExactAudioCopy v0.90b4
#
DISCID=8409590a
DTITLE=ZZ TOP - Recycler
DYEAR=1990
DGENRE=Rock
TTITLE0=Concrete And Steel
TTITLE1=Lovething
TTITLE2=Penthouse Eyes
TTITLE3=Tell It
TTITLE4=My Head's In Mississippi
TTITLE5=Decision Or Collision
TTITLE6=Give It Up
TTITLE7=2000 Blues
TTITLE8=Burger Man
TTITLE9=Doubleback
EXTD=YEAR: 1990 ID3G: 17
EXTT0=
EXTT1=
EXTT2=
EXTT3=
EXTT4=
EXTT5=
EXTT6=
EXTT7=
EXTT8=
EXTT9=
PLAYORDER=
